<svg width="10" height="10" viewBox="0 0 150 150" fill="none" xmlns="http://www.w3.org/2000/svg">
<rect width="150" height="150" fill="white"/>
<circle cx="74.5" cy="74.5" r="68.5" fill="#DD4C59"/>
<path d="M127 64.5C127 44.8939 111.106 29 91.5 29H65.5C45.8939 29 30 44.8939 30 64.5V90.5C30 110.106 45.8939 126 65.5 126C82.1833 126 96.1786 114.492 99.9807 98.9807C115.492 95.1786 127 81.1833 127 64.5Z" fill="white"/>
<path d="M120 64.5C120 48.2076 106.792 35 90.5 35H65.5C49.2076 35 36 48.2076 36 64.5V89.5C36 105.792 49.2076 119 65.5 119C80.3655 119 92.6629 108.005 94.7029 93.7029C109.005 91.6629 120 79.3655 120 64.5Z" fill="#DD4C59"/>
<path d="M90.5 88C103.479 88 114 77.4787 114 64.5C114 51.5213 103.479 41 90.5 41H65.5C52.5213 41 42 51.5213 42 64.5V89.5C42 102.479 52.5213 113 65.5 113C78.4787 113 89 102.479 89 89.5C89 88.9791 88.9831 88.4621 88.9497 87.9497C89.4621 87.9831 89.9791 88 90.5 88Z" fill="white"/>
<path d="M90.5 82C100.165 82 108 74.165 108 64.5C108 54.835 100.165 47 90.5 47H65.5C55.835 47 48 54.835 48 64.5V89.5C48 99.165 55.835 107 65.5 107C75.165 107 83 99.165 83 89.5V82H90.5Z" fill="#DD4C59"/>
</svg>
